HIERARCHY
ROOT Hips
{
	OFFSET -3.958830 18.904000 13.208200
	CHANNELS 6 Xposition Yposition Zposition Zrotation Yrotation Xrotation 
	JOINT LHipJoint
	{
		OFFSET 0.000000 0.000000 0.000000
		CHANNELS 3 Zrotation Yrotation Xrotation
		JOINT LeftUpLeg
		{
			OFFSET 1.800000 -1.400000 0.085000
			CHANNELS 3 Zrotation Yrotation Xrotation
			JOINT LeftLeg
			{
				OFFSET 2.215000 -6.000000 0.000000
				CHANNELS 3 Zrotation Yrotation Xrotation
				JOINT LeftFoot
				{
					OFFSET 2.500000 -6.900000 0.000000
					CHANNELS 3 Zrotation Yrotation Xrotation
					JOINT LeftToeBase
					{
						OFFSET 0.200000 -0.500000 1.950000
						CHANNELS 3 Zrotation Yrotation Xrotation
						End Site
						{
							OFFSET 0.000000 0.000000 0.000000
						}
					}
				}
			}
		}
	}
	JOINT RHipJoint
	{
		OFFSET 0.000000 0.000000 0.000000
		CHANNELS 3 Zrotation Yrotation Xrotation
		JOINT RightUpLeg
		{
			OFFSET -1.800000 -1.400000 0.085000
			CHANNELS 3 Zrotation Yrotation Xrotation
			JOINT RightLeg
			{
				OFFSET -2.215000 -6.000000 0.000000
				CHANNELS 3 Zrotation Yrotation Xrotation
				JOINT RightFoot
				{
					OFFSET -2.500000 -6.900000 0.000000
					CHANNELS 3 Zrotation Yrotation Xrotation
					JOINT RightToeBase
					{
						OFFSET -0.200000 -0.500000 1.950000
						CHANNELS 3 Zrotation Yrotation Xrotation
						End Site
						{
							OFFSET 0.000000 0.000000 0.000000
						}
					}
				}
			}
		}
	}
	JOINT LowerBack
	{
		OFFSET 0.000000 0.000000 0.000000
		CHANNELS 3 Zrotation Yrotation Xrotation
		JOINT Spine
		{
			OFFSET -0.087000 1.940000 -0.288900
			CHANNELS 3 Zrotation Yrotation Xrotation
			JOINT Spine1
			{
				OFFSET 0.000000 1.950000 0.060000
				CHANNELS 3 Zrotation Yrotation Xrotation
				JOINT Neck
				{
					OFFSET 0.000000 0.000000 0.000000
					CHANNELS 3 Zrotation Yrotation Xrotation
					JOINT Neck1
					{
						OFFSET 0.000000 1.600000 0.340000
						CHANNELS 3 Zrotation Yrotation Xrotation
						JOINT Head
						{
							OFFSET 0.000000 1.667000 -0.240000
							CHANNELS 3 Zrotation Yrotation Xrotation
							End Site
							{
								OFFSET 0.000000 0.000000 0.000000
							}
						}
					}
				}
				JOINT LeftShoulder
				{
					OFFSET 0.000000 0.000000 0.000000
					CHANNELS 3 Zrotation Yrotation Xrotation
					JOINT LeftArm
					{
						OFFSET 2.700000 1.550000 -0.730000
						CHANNELS 3 Zrotation Yrotation Xrotation
						JOINT LeftForeArm
						{
							OFFSET 5.450000 0.000000 0.000000
							CHANNELS 3 Zrotation Yrotation Xrotation
							JOINT LeftHand
							{
								OFFSET 3.450000 0.000000 0.000000
								CHANNELS 3 Zrotation Yrotation Xrotation
								JOINT LeftHandIndex1
								{
									OFFSET 0.750000 0.000000 0.000000
									CHANNELS 3 Zrotation Yrotation Xrotation
									End Site
									{
										OFFSET 0.000000 0.000000 0.000000
									}
								}
							}
						}
					}
				}
				JOINT RightShoulder
				{
					OFFSET 0.000000 0.000000 0.000000
					CHANNELS 3 Zrotation Yrotation Xrotation
					JOINT RightArm
					{
						OFFSET -2.700000 1.550000 -0.730000
						CHANNELS 3 Zrotation Yrotation Xrotation
						JOINT RightForeArm
						{
							OFFSET -5.450000 0.000000 0.000000
							CHANNELS 3 Zrotation Yrotation Xrotation
							JOINT RightHand
							{
								OFFSET -3.450000 0.000000 0.000000
								CHANNELS 3 Zrotation Yrotation Xrotation
								JOINT RightHandIndex1
								{
									OFFSET -0.750000 0.000000 0.000000
									CHANNELS 3 Zrotation Yrotation Xrotation
									End Site
									{
										OFFSET 0.000000 0.000000 0.000000
									}
								}
							}
						}
					}
				}
			}
		}
	}
}
MOTION
Frames: 6
Frame Time: 0.016667
1.256320 17.008280 -0.351850 3.298935 9.927983 5.954573 -15.994390 13.904553 3.186837 4.294360 -4.450303 -0.879872 -17.342775 12.039818 24.724391 0.584675 8.038458 2.361964 0.107190 -0.379340 -0.156600 17.736578 -8.253473 3.574533 13.971208 4.762994 -28.054284 9.182955 -2.390256 3.813939 0.400962 -1.658885 4.301928 -0.121010 0.953250 0.118610 -1.648817 -6.831584 -7.662435 -11.314115 -7.640803 8.194761 -8.655595 -6.461775 6.962034 -0.482960 -5.154000 -11.362747 -14.636494 6.036890 29.587585 10.043070 -5.054320 10.167880 9.124820 1.644975 5.429453 -44.083252 -26.917749 4.442625 48.561007 -46.970911 -23.928885 -3.818248 2.768108 0.195390 0.501490 -0.590070 0.444060 -7.142023 -2.894397 4.985045 55.164081 -15.467727 -15.316115 11.510144 13.544232 -1.160455 2.020753 -1.307790 -0.383660 0.357480 0.064150 -0.007190 
1.262370 17.003230 -0.303130 3.448223 8.363759 5.328598 -16.005731 13.864050 3.276273 4.735525 -4.780371 -0.977271 -18.763628 12.779470 25.688057 0.697753 8.305962 2.238810 0.154170 -0.332320 -0.093530 17.715144 -8.279121 3.535162 13.696531 4.515219 -26.631121 9.915518 -2.607479 3.928452 0.327748 -1.729036 4.260449 -0.131160 0.863720 0.133790 -1.587707 -6.776688 -7.756943 -12.814126 -6.969475 8.675646 -7.357229 -5.926347 6.997521 -0.354891 -5.215269 -11.989213 -15.152960 6.323320 30.535313 10.195650 -4.646550 9.213930 8.076514 0.211698 5.550885 -42.795433 -25.195401 2.776231 46.255465 -46.948365 -22.741702 -3.750207 2.800163 0.236110 0.442800 -0.516630 0.432350 -6.210089 -0.681965 5.863827 54.366157 -15.343161 -15.206672 11.844911 13.910196 -1.072471 2.045066 -1.312174 -0.334340 0.315060 0.025970 -0.020810 
1.273890 16.987570 -0.221720 3.803751 7.412807 4.036324 -16.003625 13.819219 3.401907 5.556441 -5.615189 -1.549691 -19.897086 13.818653 28.356171 0.794792 8.749315 2.021329 0.210530 -0.286880 0.027560 17.685724 -8.375547 3.483213 13.084027 4.043049 -24.379544 10.493364 -2.886237 4.039587 0.208324 -1.805491 4.195057 -0.148860 0.702060 0.140340 -1.539419 -6.634975 -7.930448 -15.094938 -6.266839 10.394449 -5.861737 -5.634042 6.719650 0.084961 -4.918812 -12.834731 -15.459337 6.435035 32.922492 9.453820 -3.446910 6.828070 6.583073 -2.279968 5.754185 -40.555605 -22.667600 0.482346 41.084033 -46.563613 -19.994788 -3.644716 2.804119 0.354720 0.338780 -0.389810 0.384080 -5.386320 2.288236 6.973769 55.131736 -14.797827 -15.556269 8.690538 14.446050 -1.079505 2.091655 -1.266518 -0.298490 0.272520 -0.012880 -0.081860 
1.290370 16.938320 -0.125370 3.556901 4.921372 3.188652 -15.976796 13.608669 3.558570 7.179624 -6.737664 -3.277215 -22.256082 15.693684 31.637579 1.001966 9.496326 1.733129 0.242780 -0.270590 0.107460 17.710344 -8.401077 3.452802 13.449783 3.956906 -22.478138 10.761191 -3.179689 4.874951 0.119503 -1.910370 4.124722 -0.177010 0.598710 0.159780 -1.586771 -6.330058 -8.087037 -15.794840 -5.417643 11.262463 -5.190109 -4.971184 6.286305 0.527105 -4.941277 -13.525332 -15.588573 6.484597 33.710236 8.799340 -2.604380 5.629030 4.918257 -3.904982 5.728275 -38.789892 -20.056157 -1.295765 35.610261 -45.670019 -16.950814 -3.578136 2.860480 0.410250 0.270580 -0.309450 0.355850 -4.424787 4.694812 8.116989 56.113223 -15.075983 -17.058112 4.879479 19.463895 -1.135599 2.073406 -1.348453 -0.256530 0.220910 -0.045790 -0.108950 
1.287190 16.885350 -0.047230 3.433040 2.404704 2.309799 -15.955828 13.370251 3.753637 9.204896 -7.965614 -6.144297 -23.974060 17.943226 36.069502 1.190251 10.401620 1.394361 0.264370 -0.265260 0.153440 17.736159 -8.394247 3.421389 13.986494 4.013782 -21.051002 10.515024 -3.444523 6.355705 0.065777 -2.007968 4.077021 -0.187370 0.529270 0.158560 -1.629730 -6.037515 -8.247467 -17.165121 -4.182434 12.537381 -3.689777 -4.041237 5.980078 0.592756 -4.825870 -14.179280 -15.214557 6.454951 34.053127 8.912940 -2.195070 4.267700 4.018589 -5.829933 6.083328 -39.042531 -18.448041 -2.545575 32.676828 -43.419789 -15.126734 -3.531802 2.892595 0.464640 0.220850 -0.268530 0.331940 -3.514514 7.227414 8.980837 57.088734 -14.174897 -17.565774 0.654558 22.002665 -1.457413 2.066902 -1.393403 -0.247680 0.194700 -0.058110 -0.140190 
1.301420 16.822640 0.016090 3.225132 2.103918 1.209385 -15.967285 13.109022 4.093959 11.917335 -10.116671 -10.543498 -24.716437 20.563463 42.789956 1.449161 11.626891 0.987540 0.267680 -0.273460 0.194910 17.741118 -8.289263 3.333660 13.981345 3.991793 -20.009628 10.596716 -3.746162 7.885907 0.007215 -2.099819 4.022645 -0.205770 0.483320 0.154200 -1.614839 -5.975499 -8.469523 -18.683613 -3.384917 15.262825 -1.262601 -3.802035 6.086410 0.627268 -4.876055 -14.911279 -15.012951 5.665942 33.604185 8.411160 -2.308100 2.439670 3.392524 -8.003509 6.467346 -40.451944 -17.756106 -3.443875 29.242800 -39.889823 -13.052511 -3.487945 2.905463 0.516090 0.172370 -0.222340 0.317480 -2.857042 9.949157 10.180679 57.024413 -14.376936 -18.689266 -1.455365 26.108737 -1.741299 2.025580 -1.433396 -0.250160 0.200050 -0.070990 -0.154710 
